<svg width="24" height="24" viewBox="0 0 24 24" fill="none" xmlns="http://www.w3.org/2000/svg">
<path fill-rule="evenodd" clip-rule="evenodd" d="M12.0005 7.75C12.4147 7.75 12.7505 8.08579 12.7505 8.5V11.25L15.5005 11.25C15.9147 11.25 16.2505 11.5858 16.2505 12C16.2505 12.4142 15.9147 12.75 15.5005 12.75H12.7505L12.7505 15.5C12.7505 15.9142 12.4147 16.25 12.0005 16.25C11.5863 16.25 11.2505 15.9142 11.2505 15.5L11.2505 12.75L8.50049 12.75C8.08627 12.75 7.75049 12.4142 7.75049 12C7.75049 11.5858 8.08627 11.25 8.50049 11.25L11.2505 11.25L11.2505 8.5C11.2505 8.08579 11.5863 7.75 12.0005 7.75Z" fill="#EBA400"/>
<path fill-rule="evenodd" clip-rule="evenodd" d="M12 3.75C7.44365 3.75 3.75 7.44365 3.75 12C3.75 16.5563 7.44365 20.25 12 20.25C16.5563 20.25 20.25 16.5563 20.25 12C20.25 7.44365 16.5563 3.75 12 3.75ZM2.25 12C2.25 6.61522 6.61522 2.25 12 2.25C17.3848 2.25 21.75 6.61522 21.75 12C21.75 17.3848 17.3848 21.75 12 21.75C6.61522 21.75 2.25 17.3848 2.25 12Z" fill="#EBA400"/>
</svg>
